<!DOCTYPE svg PUBLIC "-//W3C//DTD SVG 1.1//EN" "http://www.w3.org/Graphics/SVG/1.1/DTD/svg11.dtd">
<!-- Uploaded to: SVG Repo, www.svgrepo.com, Transformed by: SVG Repo Mixer Tools -->
<svg fill="#ffffff" height="800px" width="800px" version="1.1" id="Layer_1" xmlns="http://www.w3.org/2000/svg" xmlns:xlink="http://www.w3.org/1999/xlink" viewBox="-51.2 -51.2 614.40 614.40" xml:space="preserve">
<g id="SVGRepo_bgCarrier" stroke-width="0">
<rect x="-51.2" y="-51.2" width="614.40" height="614.40" rx="0" fill="#000000" strokewidth="0"/>
</g>
<g id="SVGRepo_tracerCarrier" stroke-linecap="round" stroke-linejoin="round"/>
<g id="SVGRepo_iconCarrier"> <g> <g> <path d="M410.46,266.162l11.302-11.302l-42.402-42.402l19.763-19.763l-79.765-79.765L66.676,365.611l79.765,79.765l40.672-40.672 l41.319,99.752l92.943-38.498l-32.426-78.285l64.035-64.035l101.54,101.54l57.477-57.477L410.46,266.162z M276.411,357.405 l-12.301-29.698L275.818,316l12.932,12.932l21.403-21.402l-12.932-12.932l13.361-13.361l20.999,20.999L276.411,357.405z"/> </g> </g> <g> <g> <polygon points="500.357,62.267 449.787,11.697 396.535,64.949 339.132,7.545 0,346.677 21.402,368.08 339.132,50.351 375.132,86.352 355.358,106.126 405.929,156.695 425.703,136.921 456.041,167.26 477.443,145.856 447.105,115.519 "/> </g> </g> </g>
</svg>